ffmpeg started on 2026-01-13 at 10:19:20
Report written to "D:\Convert\FFMetrics\reports\ssim_report-6.txt"
Log level: 32
Command line:
ffmpeg -hide_banner -nostdin -r 24000/1001 -i "F:\\Convert\\files\\[DC] Make Heroine ga Oosugiru - 07_Telegram_HEVC(114).mkv" -r 24000/1001 -i "F:\\Convert\\files\\[DC] Make Heroine ga Oosugiru - 07_Telegram.mp4" -lavfi "[0:v]settb=AVTB,setpts=PTS-STARTPTS,format=pix_fmts=yuv420p10le,fps=24000/1001,scale=1920:1080:flags=lanczos:param0=3:out_range=limited:out_color_matrix=bt709:out_chroma_loc=left,setsar=1/1,setdar=(1920/1080)*(1/1),colorspace=format=yuv420p10:range=tv:primaries=bt709:trc=bt709:space=bt709:fast=0[main];[1:v]settb=AVTB,setpts=PTS-STARTPTS,format=pix_fmts=yuv420p,fps=24000/1001,scale=1920:1080:flags=lanczos:param0=3:out_range=limited:out_color_matrix=bt709:out_chroma_loc=left,setsar=1.000,setdar=1.778,colorspace=format=yuv420p:range=tv:primaries=bt709:trc=bt709:space=bt709:fast=0[ref];[main][ref]ssim=eof_action=endall:stats_file='D\\:/Convert/FFMetrics/logs/ssim_logfile-6.txt'" -f null -
Input #0, matroska,webm, from 'F:\Convert\files\[DC] Make Heroine ga Oosugiru - 07_Telegram_HEVC(114).mkv':
  Metadata:
    COMPATIBLE_BRANDS: isomiso2avc1mp41
    MAJOR_BRAND     : isom
    MINOR_VERSION   : 512
    ENCODER         : Lavf61.7.100
  Duration: 00:24:06.79, start: -0.021000, bitrate: 1008 kb/s
  Stream #0:0: Video: hevc (Main 10), yuv420p10le(tv, bt709, progressive), 1920x1080 [SAR 1:1 DAR 16:9], 23.98 fps, 23.98 tbr, 1k tbn (default)
      Metadata:
        HANDLER_NAME    : VideoHandler
        VENDOR_ID       : [0][0][0][0]
        ENCODER         : Lavc61.19.100 libx265
        BPS             : 810992
        DURATION        : 00:24:06.569708333
        NUMBER_OF_FRAMES: 34683
        NUMBER_OF_BYTES : 146644525
        _STATISTICS_WRITING_APP: mkvpropedit v94.0 ('Initiate') 64-bit
        _STATISTICS_WRITING_DATE_UTC: 2026-01-12 14:37:36
        _STATISTICS_TAGS: BPS DURATION NUMBER_OF_FRAMES NUMBER_OF_BYTES
  Stream #0:1: Audio: aac (LC), 48000 Hz, stereo, fltp (default)
      Metadata:
        HANDLER_NAME    : SoundHandler
        VENDOR_ID       : [0][0][0][0]
        ENCODER         : Lavc61.19.100 aac
        BPS             : 193194
        DURATION        : 00:24:06.784000000
        NUMBER_OF_FRAMES: 67819
        NUMBER_OF_BYTES : 34938755
        _STATISTICS_WRITING_APP: mkvpropedit v94.0 ('Initiate') 64-bit
        _STATISTICS_WRITING_DATE_UTC: 2026-01-12 14:37:36
        _STATISTICS_TAGS: BPS DURATION NUMBER_OF_FRAMES NUMBER_OF_BYTES
Input #1, mov,mp4,m4a,3gp,3g2,mj2, from 'F:\Convert\files\[DC] Make Heroine ga Oosugiru - 07_Telegram.mp4':
  Metadata:
    major_brand     : isom
    minor_version   : 512
    compatible_brands: isomiso2avc1mp41
    encoder         : Lavf60.16.100
  Duration: 00:24:06.74, start: 0.000000, bitrate: 3764 kb/s
  Stream #1:0[0x1](und): Video: h264 (High) (avc1 / 0x31637661), yuv420p(tv, bt709, progressive), 1920x1080 [SAR 1:1 DAR 16:9], 3616 kb/s, 23.98 fps, 23.98 tbr, 24k tbn (default)
      Metadata:
        handler_name    : VideoHandler
        vendor_id       : [0][0][0][0]
        encoder         : Lavc60.31.102 h264_qsv
  Stream #1:1[0x2](und): Audio: aac (HE-AACv2) (mp4a / 0x6134706D), 48000 Hz, stereo, fltp, 144 kb/s (default)
      Metadata:
        handler_name    : SoundHandler
        vendor_id       : [0][0][0][0]
Stream mapping:
  Stream #0:0 (hevc) -> settb:default
  Stream #1:0 (h264) -> settb:default
  ssim:default -> Stream #0:0 (wrapped_avframe)
  Stream #0:1 -> #0:1 (aac (native) -> pcm_s16le (native))
Output #0, null, to 'pipe:':
  Metadata:
    COMPATIBLE_BRANDS: isomiso2avc1mp41
    MAJOR_BRAND     : isom
    MINOR_VERSION   : 512
    encoder         : Lavf61.7.100
  Stream #0:0: Video: wrapped_avframe, yuv420p10le(tv, bt709, progressive), 1920x1080 [SAR 1:1 DAR 16:9], q=2-31, 200 kb/s, 23.98 fps, 23.98 tbn
      Metadata:
        encoder         : Lavc61.19.100 wrapped_avframe
  Stream #0:1: Audio: pcm_s16le, 48000 Hz, stereo, s16, 1536 kb/s (default)
      Metadata:
        HANDLER_NAME    : SoundHandler
        VENDOR_ID       : [0][0][0][0]
        _STATISTICS_TAGS: BPS DURATION NUMBER_OF_FRAMES NUMBER_OF_BYTES
        BPS             : 193194
        DURATION        : 00:24:06.784000000
        NUMBER_OF_FRAMES: 67819
        NUMBER_OF_BYTES : 34938755
        _STATISTICS_WRITING_APP: mkvpropedit v94.0 ('Initiate') 64-bit
        _STATISTICS_WRITING_DATE_UTC: 2026-01-12 14:37:36
        encoder         : Lavc61.19.100 pcm_s16le
frame=  117 fps=0.0 q=-0.0 size=N/A time=00:00:04.87 bitrate=N/A speed= 9.3x    frame=  290 fps=280 q=-0.0 size=N/A time=00:00:12.09 bitrate=N/A speed=11.7x    frame=  463 fps=299 q=-0.0 size=N/A time=00:00:19.31 bitrate=N/A speed=12.5x    frame=  637 fps=309 q=-0.0 size=N/A time=00:00:26.56 bitrate=N/A speed=12.9x    frame=  787 fps=306 q=-0.0 size=N/A time=00:00:32.82 bitrate=N/A speed=12.8x    frame=  934 fps=301 q=-0.0 size=N/A time=00:00:38.95 bitrate=N/A speed=12.6x    frame= 1077 fps=298 q=-0.0 size=N/A time=00:00:44.91 bitrate=N/A speed=12.4x    frame= 1220 fps=296 q=-0.0 size=N/A time=00:00:50.88 bitrate=N/A speed=12.3x    frame= 1373 fps=296 q=-0.0 size=N/A time=00:00:57.26 bitrate=N/A speed=12.4x    frame= 1517 fps=294 q=-0.0 size=N/A time=00:01:03.27 bitrate=N/A speed=12.3x    frame= 1652 fps=292 q=-0.0 size=N/A time=00:01:08.90 bitrate=N/A speed=12.2x    frame= 1809 fps=292 q=-0.0 size=N/A time=00:01:15.45 bitrate=N/A speed=12.2x    frame= 1962 fps=293 q=-0.0 size=N/A time=00:01:21.83 bitrate=N/A speed=12.2x    frame= 2084 fps=288 q=-0.0 size=N/A time=00:01:26.92 bitrate=N/A speed=  12x    frame= 2226 fps=288 q=-0.0 size=N/A time=00:01:32.84 bitrate=N/A speed=  12x    frame= 2372 fps=287 q=-0.0 size=N/A time=00:01:38.93 bitrate=N/A speed=  12x    frame= 2498 fps=285 q=-0.0 size=N/A time=00:01:44.18 bitrate=N/A speed=11.9x    frame= 2636 fps=284 q=-0.0 size=N/A time=00:01:49.94 bitrate=N/A speed=11.8x    frame= 2785 fps=284 q=-0.0 size=N/A time=00:01:56.15 bitrate=N/A speed=11.9x    frame= 2952 fps=286 q=-0.0 size=N/A time=00:02:03.12 bitrate=N/A speed=11.9x    frame= 3122 fps=288 q=-0.0 size=N/A time=00:02:10.21 bitrate=N/A speed=  12x    frame= 3298 fps=291 q=-0.0 size=N/A time=00:02:17.55 bitrate=N/A speed=12.1x    frame= 3474 fps=293 q=-0.0 size=N/A time=00:02:24.89 bitrate=N/A speed=12.2x    frame= 3659 fps=296 q=-0.0 size=N/A time=00:02:32.61 bitrate=N/A speed=12.3x    frame= 3835 fps=298 q=-0.0 size=N/A time=00:02:39.95 bitrate=N/A speed=12.4x    frame= 4017 fps=299 q=-0.0 size=N/A time=00:02:47.54 bitrate=N/A speed=12.5x    frame= 4188 fps=301 q=-0.0 size=N/A time=00:02:54.67 bitrate=N/A speed=12.5x    frame= 4356 fps=302 q=-0.0 size=N/A time=00:03:01.68 bitrate=N/A speed=12.6x    frame= 4516 fps=302 q=-0.0 size=N/A time=00:03:08.35 bitrate=N/A speed=12.6x    frame= 4678 fps=302 q=-0.0 size=N/A time=00:03:15.11 bitrate=N/A speed=12.6x    frame= 4825 fps=302 q=-0.0 size=N/A time=00:03:21.24 bitrate=N/A speed=12.6x    frame= 4964 fps=301 q=-0.0 size=N/A time=00:03:27.04 bitrate=N/A speed=12.5x    frame= 5105 fps=300 q=-0.0 size=N/A time=00:03:32.92 bitrate=N/A speed=12.5x    frame= 5271 fps=301 q=-0.0 size=N/A time=00:03:39.84 bitrate=N/A speed=12.5x    frame= 5462 fps=303 q=-0.0 size=N/A time=00:03:47.81 bitrate=N/A speed=12.6x    frame= 5638 fps=304 q=-0.0 size=N/A time=00:03:55.15 bitrate=N/A speed=12.7x    frame= 5818 fps=305 q=-0.0 size=N/A time=00:04:02.65 bitrate=N/A speed=12.7x    frame= 5998 fps=306 q=-0.0 size=N/A time=00:04:10.16 bitrate=N/A speed=12.8x    frame= 6168 fps=307 q=-0.0 size=N/A time=00:04:17.25 bitrate=N/A speed=12.8x    frame= 6301 fps=306 q=-0.0 size=N/A time=00:04:22.80 bitrate=N/A speed=12.7x    frame= 6460 fps=305 q=-0.0 size=N/A time=00:04:29.43 bitrate=N/A speed=12.7x    frame= 6614 fps=305 q=-0.0 size=N/A time=00:04:35.85 bitrate=N/A speed=12.7x    frame= 6783 fps=306 q=-0.0 size=N/A time=00:04:42.90 bitrate=N/A speed=12.8x    frame= 6942 fps=306 q=-0.0 size=N/A time=00:04:49.53 bitrate=N/A speed=12.8x    frame= 7099 fps=306 q=-0.0 size=N/A time=00:04:56.08 bitrate=N/A speed=12.8x    frame= 7272 fps=306 q=-0.0 size=N/A time=00:05:03.30 bitrate=N/A speed=12.8x    frame= 7449 fps=307 q=-0.0 size=N/A time=00:05:10.68 bitrate=N/A speed=12.8x    frame= 7607 fps=307 q=-0.0 size=N/A time=00:05:17.27 bitrate=N/A speed=12.8x    frame= 7783 fps=308 q=-0.0 size=N/A time=00:05:24.61 bitrate=N/A speed=12.8x    frame= 7958 fps=309 q=-0.0 size=N/A time=00:05:31.91 bitrate=N/A speed=12.9x    frame= 8127 fps=309 q=-0.0 size=N/A time=00:05:38.96 bitrate=N/A speed=12.9x    frame= 8277 fps=309 q=-0.0 size=N/A time=00:05:45.21 bitrate=N/A speed=12.9x    frame= 8425 fps=308 q=-0.0 size=N/A time=00:05:51.39 bitrate=N/A speed=12.9x    frame= 8572 fps=308 q=-0.0 size=N/A time=00:05:57.52 bitrate=N/A speed=12.8x    frame= 8749 fps=309 q=-0.0 size=N/A time=00:06:04.90 bitrate=N/A speed=12.9x    frame= 8934 fps=309 q=-0.0 size=N/A time=00:06:12.62 bitrate=N/A speed=12.9x    frame= 9101 fps=310 q=-0.0 size=N/A time=00:06:19.58 bitrate=N/A speed=12.9x    frame= 9240 fps=309 q=-0.0 size=N/A time=00:06:25.38 bitrate=N/A speed=12.9x    frame= 9359 fps=308 q=-0.0 size=N/A time=00:06:30.34 bitrate=N/A speed=12.8x    frame= 9488 fps=307 q=-0.0 size=N/A time=00:06:35.72 bitrate=N/A speed=12.8x    frame= 9658 fps=307 q=-0.0 size=N/A time=00:06:42.81 bitrate=N/A speed=12.8x    frame= 9804 fps=307 q=-0.0 size=N/A time=00:06:48.90 bitrate=N/A speed=12.8x    frame= 9969 fps=307 q=-0.0 size=N/A time=00:06:55.79 bitrate=N/A speed=12.8x    frame=10109 fps=306 q=-0.0 size=N/A time=00:07:01.62 bitrate=N/A speed=12.8x    frame=10245 fps=306 q=-0.0 size=N/A time=00:07:07.30 bitrate=N/A speed=12.8x    frame=10420 fps=306 q=-0.0 size=N/A time=00:07:14.60 bitrate=N/A speed=12.8x    frame=10571 fps=306 q=-0.0 size=N/A time=00:07:20.89 bitrate=N/A speed=12.8x    frame=10730 fps=306 q=-0.0 size=N/A time=00:07:27.53 bitrate=N/A speed=12.8x    frame=10890 fps=306 q=-0.0 size=N/A time=00:07:34.20 bitrate=N/A speed=12.8x    frame=11038 fps=306 q=-0.0 size=N/A time=00:07:40.37 bitrate=N/A speed=12.8x    frame=11200 fps=306 q=-0.0 size=N/A time=00:07:47.13 bitrate=N/A speed=12.8x    frame=11356 fps=306 q=-0.0 size=N/A time=00:07:53.63 bitrate=N/A speed=12.8x    frame=11502 fps=306 q=-0.0 size=N/A time=00:07:59.72 bitrate=N/A speed=12.7x    frame=11649 fps=305 q=-0.0 size=N/A time=00:08:05.86 bitrate=N/A speed=12.7x    frame=11801 fps=305 q=-0.0 size=N/A time=00:08:12.20 bitrate=N/A speed=12.7x    frame=11955 fps=305 q=-0.0 size=N/A time=00:08:18.62 bitrate=N/A speed=12.7x    frame=12133 fps=306 q=-0.0 size=N/A time=00:08:26.04 bitrate=N/A speed=12.7x    frame=12308 fps=306 q=-0.0 size=N/A time=00:08:33.34 bitrate=N/A speed=12.8x    frame=12491 fps=307 q=-0.0 size=N/A time=00:08:40.97 bitrate=N/A speed=12.8x    frame=12667 fps=307 q=-0.0 size=N/A time=00:08:48.31 bitrate=N/A speed=12.8x    frame=12817 fps=307 q=-0.0 size=N/A time=00:08:54.57 bitrate=N/A speed=12.8x    frame=12988 fps=307 q=-0.0 size=N/A time=00:09:01.70 bitrate=N/A speed=12.8x    frame=13162 fps=307 q=-0.0 size=N/A time=00:09:08.96 bitrate=N/A speed=12.8x    frame=13320 fps=307 q=-0.0 size=N/A time=00:09:15.55 bitrate=N/A speed=12.8x    frame=13468 fps=307 q=-0.0 size=N/A time=00:09:21.72 bitrate=N/A speed=12.8x    frame=13638 fps=308 q=-0.0 size=N/A time=00:09:28.81 bitrate=N/A speed=12.8x    frame=13811 fps=308 q=-0.0 size=N/A time=00:09:36.03 bitrate=N/A speed=12.8x    frame=13989 fps=308 q=-0.0 size=N/A time=00:09:43.45 bitrate=N/A speed=12.9x    frame=14143 fps=308 q=-0.0 size=N/A time=00:09:49.88 bitrate=N/A speed=12.9x    frame=14324 fps=309 q=-0.0 size=N/A time=00:09:57.43 bitrate=N/A speed=12.9x    frame=14484 fps=309 q=-0.0 size=N/A time=00:10:04.10 bitrate=N/A speed=12.9x    frame=14650 fps=309 q=-0.0 size=N/A time=00:10:11.02 bitrate=N/A speed=12.9x    frame=14816 fps=309 q=-0.0 size=N/A time=00:10:17.95 bitrate=N/A speed=12.9x    frame=14988 fps=309 q=-0.0 size=N/A time=00:10:25.12 bitrate=N/A speed=12.9x    frame=15132 fps=309 q=-0.0 size=N/A time=00:10:31.13 bitrate=N/A speed=12.9x    frame=15287 fps=309 q=-0.0 size=N/A time=00:10:37.59 bitrate=N/A speed=12.9x    frame=15468 fps=309 q=-0.0 size=N/A time=00:10:45.14 bitrate=N/A speed=12.9x    frame=15630 fps=309 q=-0.0 size=N/A time=00:10:51.90 bitrate=N/A speed=12.9x    frame=15781 fps=309 q=-0.0 size=N/A time=00:10:58.19 bitrate=N/A speed=12.9x    frame=15939 fps=309 q=-0.0 size=N/A time=00:11:04.78 bitrate=N/A speed=12.9x    frame=16075 fps=309 q=-0.0 size=N/A time=00:11:10.46 bitrate=N/A speed=12.9x    frame=16232 fps=309 q=-0.0 size=N/A time=00:11:17.00 bitrate=N/A speed=12.9x    frame=16403 fps=309 q=-0.0 size=N/A time=00:11:24.14 bitrate=N/A speed=12.9x    frame=16572 fps=309 q=-0.0 size=N/A time=00:11:31.19 bitrate=N/A speed=12.9x    frame=16756 fps=310 q=-0.0 size=N/A time=00:11:38.86 bitrate=N/A speed=12.9x    frame=16933 fps=310 q=-0.0 size=N/A time=00:11:46.24 bitrate=N/A speed=12.9x    frame=17115 fps=310 q=-0.0 size=N/A time=00:11:53.83 bitrate=N/A speed=12.9x    frame=17269 fps=310 q=-0.0 size=N/A time=00:12:00.26 bitrate=N/A speed=12.9x    frame=17445 fps=310 q=-0.0 size=N/A time=00:12:07.60 bitrate=N/A speed=12.9x    frame=17613 fps=310 q=-0.0 size=N/A time=00:12:14.60 bitrate=N/A speed=12.9x    frame=17780 fps=311 q=-0.0 size=N/A time=00:12:21.57 bitrate=N/A speed=  13x    frame=17963 fps=311 q=-0.0 size=N/A time=00:12:29.20 bitrate=N/A speed=  13x    frame=18143 fps=311 q=-0.0 size=N/A time=00:12:36.71 bitrate=N/A speed=  13x    frame=18297 fps=311 q=-0.0 size=N/A time=00:12:43.13 bitrate=N/A speed=  13x    frame=18469 fps=311 q=-0.0 size=N/A time=00:12:50.31 bitrate=N/A speed=  13x    frame=18642 fps=312 q=-0.0 size=N/A time=00:12:57.52 bitrate=N/A speed=  13x    frame=18814 fps=312 q=-0.0 size=N/A time=00:13:04.70 bitrate=N/A speed=  13x    frame=19010 fps=312 q=-0.0 size=N/A time=00:13:12.87 bitrate=N/A speed=  13x    frame=19183 fps=312 q=-0.0 size=N/A time=00:13:20.09 bitrate=N/A speed=  13x    frame=19363 fps=313 q=-0.0 size=N/A time=00:13:27.59 bitrate=N/A speed=  13x    frame=19544 fps=313 q=-0.0 size=N/A time=00:13:35.14 bitrate=N/A speed=13.1x    frame=19712 fps=313 q=-0.0 size=N/A time=00:13:42.15 bitrate=N/A speed=13.1x    frame=19889 fps=313 q=-0.0 size=N/A time=00:13:49.53 bitrate=N/A speed=13.1x    frame=20079 fps=314 q=-0.0 size=N/A time=00:13:57.46 bitrate=N/A speed=13.1x    frame=20262 fps=314 q=-0.0 size=N/A time=00:14:05.09 bitrate=N/A speed=13.1x    frame=20435 fps=314 q=-0.0 size=N/A time=00:14:12.30 bitrate=N/A speed=13.1x    frame=20608 fps=315 q=-0.0 size=N/A time=00:14:19.52 bitrate=N/A speed=13.1x    frame=20782 fps=315 q=-0.0 size=N/A time=00:14:26.78 bitrate=N/A speed=13.1x    frame=20964 fps=315 q=-0.0 size=N/A time=00:14:34.37 bitrate=N/A speed=13.1x    frame=21137 fps=315 q=-0.0 size=N/A time=00:14:41.58 bitrate=N/A speed=13.1x    frame=21309 fps=315 q=-0.0 size=N/A time=00:14:48.76 bitrate=N/A speed=13.2x    frame=21495 fps=316 q=-0.0 size=N/A time=00:14:56.52 bitrate=N/A speed=13.2x    frame=21663 fps=316 q=-0.0 size=N/A time=00:15:03.52 bitrate=N/A speed=13.2x    frame=21843 fps=316 q=-0.0 size=N/A time=00:15:11.03 bitrate=N/A speed=13.2x    frame=21996 fps=316 q=-0.0 size=N/A time=00:15:17.41 bitrate=N/A speed=13.2x    frame=22175 fps=316 q=-0.0 size=N/A time=00:15:24.88 bitrate=N/A speed=13.2x    frame=22343 fps=316 q=-0.0 size=N/A time=00:15:31.88 bitrate=N/A speed=13.2x    frame=22524 fps=316 q=-0.0 size=N/A time=00:15:39.43 bitrate=N/A speed=13.2x    frame=22706 fps=317 q=-0.0 size=N/A time=00:15:47.02 bitrate=N/A speed=13.2x    frame=22890 fps=317 q=-0.0 size=N/A time=00:15:54.70 bitrate=N/A speed=13.2x    frame=23055 fps=317 q=-0.0 size=N/A time=00:16:01.58 bitrate=N/A speed=13.2x    frame=23243 fps=317 q=-0.0 size=N/A time=00:16:09.42 bitrate=N/A speed=13.2x    frame=23385 fps=317 q=-0.0 size=N/A time=00:16:15.34 bitrate=N/A speed=13.2x    frame=23533 fps=317 q=-0.0 size=N/A time=00:16:21.52 bitrate=N/A speed=13.2x    frame=23706 fps=317 q=-0.0 size=N/A time=00:16:28.73 bitrate=N/A speed=13.2x    frame=23851 fps=317 q=-0.0 size=N/A time=00:16:34.78 bitrate=N/A speed=13.2x    frame=23992 fps=316 q=-0.0 size=N/A time=00:16:40.66 bitrate=N/A speed=13.2x    frame=24144 fps=316 q=-0.0 size=N/A time=00:16:47.00 bitrate=N/A speed=13.2x    frame=24292 fps=316 q=-0.0 size=N/A time=00:16:53.17 bitrate=N/A speed=13.2x    frame=24461 fps=316 q=-0.0 size=N/A time=00:17:00.22 bitrate=N/A speed=13.2x    frame=24635 fps=316 q=-0.0 size=N/A time=00:17:07.48 bitrate=N/A speed=13.2x    frame=24794 fps=316 q=-0.0 size=N/A time=00:17:14.11 bitrate=N/A speed=13.2x    frame=24934 fps=316 q=-0.0 size=N/A time=00:17:19.95 bitrate=N/A speed=13.2x    frame=25102 fps=316 q=-0.0 size=N/A time=00:17:26.96 bitrate=N/A speed=13.2x    frame=25273 fps=316 q=-0.0 size=N/A time=00:17:34.09 bitrate=N/A speed=13.2x    frame=25433 fps=316 q=-0.0 size=N/A time=00:17:40.76 bitrate=N/A speed=13.2x    frame=25569 fps=316 q=-0.0 size=N/A time=00:17:46.44 bitrate=N/A speed=13.2x    frame=25722 fps=316 q=-0.0 size=N/A time=00:17:52.82 bitrate=N/A speed=13.2x    frame=25898 fps=316 q=-0.0 size=N/A time=00:18:00.16 bitrate=N/A speed=13.2x    frame=26077 fps=316 q=-0.0 size=N/A time=00:18:07.62 bitrate=N/A speed=13.2x    frame=26252 fps=316 q=-0.0 size=N/A time=00:18:14.92 bitrate=N/A speed=13.2x    frame=26408 fps=316 q=-0.0 size=N/A time=00:18:21.43 bitrate=N/A speed=13.2x    frame=26584 fps=316 q=-0.0 size=N/A time=00:18:28.77 bitrate=N/A speed=13.2x    frame=26745 fps=316 q=-0.0 size=N/A time=00:18:35.48 bitrate=N/A speed=13.2x    frame=26896 fps=316 q=-0.0 size=N/A time=00:18:41.78 bitrate=N/A speed=13.2x    frame=27045 fps=316 q=-0.0 size=N/A time=00:18:48.00 bitrate=N/A speed=13.2x    frame=27196 fps=316 q=-0.0 size=N/A time=00:18:54.29 bitrate=N/A speed=13.2x    frame=27366 fps=316 q=-0.0 size=N/A time=00:19:01.39 bitrate=N/A speed=13.2x    frame=27543 fps=316 q=-0.0 size=N/A time=00:19:08.77 bitrate=N/A speed=13.2x    frame=27668 fps=316 q=-0.0 size=N/A time=00:19:13.98 bitrate=N/A speed=13.2x    frame=27839 fps=316 q=-0.0 size=N/A time=00:19:21.11 bitrate=N/A speed=13.2x    frame=28019 fps=316 q=-0.0 size=N/A time=00:19:28.62 bitrate=N/A speed=13.2x    frame=28193 fps=316 q=-0.0 size=N/A time=00:19:35.88 bitrate=N/A speed=13.2x    frame=28365 fps=316 q=-0.0 size=N/A time=00:19:43.05 bitrate=N/A speed=13.2x    frame=28552 fps=316 q=-0.0 size=N/A time=00:19:50.85 bitrate=N/A speed=13.2x    frame=28718 fps=316 q=-0.0 size=N/A time=00:19:57.77 bitrate=N/A speed=13.2x    frame=28870 fps=316 q=-0.0 size=N/A time=00:20:04.11 bitrate=N/A speed=13.2x    frame=29030 fps=316 q=-0.0 size=N/A time=00:20:10.79 bitrate=N/A speed=13.2x    frame=29193 fps=316 q=-0.0 size=N/A time=00:20:17.59 bitrate=N/A speed=13.2x    frame=29369 fps=316 q=-0.0 size=N/A time=00:20:24.93 bitrate=N/A speed=13.2x    frame=29512 fps=316 q=-0.0 size=N/A time=00:20:30.89 bitrate=N/A speed=13.2x    frame=29672 fps=316 q=-0.0 size=N/A time=00:20:37.56 bitrate=N/A speed=13.2x    frame=29843 fps=316 q=-0.0 size=N/A time=00:20:44.70 bitrate=N/A speed=13.2x    frame=29973 fps=316 q=-0.0 size=N/A time=00:20:50.12 bitrate=N/A speed=13.2x    frame=30123 fps=316 q=-0.0 size=N/A time=00:20:56.38 bitrate=N/A speed=13.2x    frame=30303 fps=316 q=-0.0 size=N/A time=00:21:03.88 bitrate=N/A speed=13.2x    frame=30478 fps=316 q=-0.0 size=N/A time=00:21:11.18 bitrate=N/A speed=13.2x    frame=30645 fps=316 q=-0.0 size=N/A time=00:21:18.15 bitrate=N/A speed=13.2x    frame=30821 fps=316 q=-0.0 size=N/A time=00:21:25.49 bitrate=N/A speed=13.2x    frame=30998 fps=316 q=-0.0 size=N/A time=00:21:32.87 bitrate=N/A speed=13.2x    frame=31167 fps=316 q=-0.0 size=N/A time=00:21:39.92 bitrate=N/A speed=13.2x    frame=31342 fps=316 q=-0.0 size=N/A time=00:21:47.22 bitrate=N/A speed=13.2x    frame=31511 fps=316 q=-0.0 size=N/A time=00:21:54.27 bitrate=N/A speed=13.2x    frame=31677 fps=317 q=-0.0 size=N/A time=00:22:01.19 bitrate=N/A speed=13.2x    frame=31835 fps=316 q=-0.0 size=N/A time=00:22:07.78 bitrate=N/A speed=13.2x    frame=31989 fps=316 q=-0.0 size=N/A time=00:22:14.20 bitrate=N/A speed=13.2x    frame=32128 fps=316 q=-0.0 size=N/A time=00:22:20.00 bitrate=N/A speed=13.2x    frame=32284 fps=316 q=-0.0 size=N/A time=00:22:26.51 bitrate=N/A speed=13.2x    frame=32449 fps=316 q=-0.0 size=N/A time=00:22:33.39 bitrate=N/A speed=13.2x    frame=32629 fps=316 q=-0.0 size=N/A time=00:22:40.90 bitrate=N/A speed=13.2x    frame=32755 fps=316 q=-0.0 size=N/A time=00:22:46.15 bitrate=N/A speed=13.2x    frame=32911 fps=316 q=-0.0 size=N/A time=00:22:52.66 bitrate=N/A speed=13.2x    frame=33088 fps=316 q=-0.0 size=N/A time=00:23:00.04 bitrate=N/A speed=13.2x    frame=33249 fps=316 q=-0.0 size=N/A time=00:23:06.76 bitrate=N/A speed=13.2x    frame=33399 fps=316 q=-0.0 size=N/A time=00:23:13.01 bitrate=N/A speed=13.2x    frame=33555 fps=316 q=-0.0 size=N/A time=00:23:19.52 bitrate=N/A speed=13.2x    frame=33704 fps=316 q=-0.0 size=N/A time=00:23:25.73 bitrate=N/A speed=13.2x    frame=33826 fps=315 q=-0.0 size=N/A time=00:23:30.82 bitrate=N/A speed=13.1x    frame=33945 fps=315 q=-0.0 size=N/A time=00:23:35.78 bitrate=N/A speed=13.1x    frame=34114 fps=315 q=-0.0 size=N/A time=00:23:42.83 bitrate=N/A speed=13.1x    frame=34249 fps=315 q=-0.0 size=N/A time=00:23:48.46 bitrate=N/A speed=13.1x    frame=34366 fps=314 q=-0.0 size=N/A time=00:23:53.34 bitrate=N/A speed=13.1x    frame=34497 fps=314 q=-0.0 size=N/A time=00:23:58.81 bitrate=N/A speed=13.1x    frame=34656 fps=314 q=-0.0 size=N/A time=00:24:05.44 bitrate=N/A speed=13.1x    [Parsed_ssim_16 @ 00000197d87b2f00] SSIM Y:0.994472 (22.574657) U:0.994285 (22.430004) V:0.993932 (22.169505) All:0.994351 (22.480397)
[out#0/null @ 00000197cb2d8a00] video:14903KiB audio:271276KiB subtitle:0KiB other streams:0KiB global headers:0KiB muxing overhead: unknown
frame=34683 fps=314 q=-0.0 Lsize=N/A time=00:24:06.57 bitrate=N/A speed=13.1x    
